<svg xmlns="http://www.w3.org/2000/svg" xmlns:xlink="http://www.w3.org/1999/xlink" version="1.1" id="Layer_1" x="0px" y="0px" width="100%" viewBox="0 0 1300 744" enable-background="new 0 0 1300 744" xml:space="preserve">
<path fill="#323946" opacity="1.000000" stroke="none" d=" M870.000000,745.000000   C580.035400,745.000000 290.570740,745.000000 1.053061,745.000000   C1.053061,497.065674 1.053061,249.131363 1.053061,1.098515   C434.214691,1.098515 867.429443,1.098515 1300.822021,1.098515   C1300.822021,248.999893 1300.822021,496.999939 1300.822021,745.000000   C1157.464600,745.000000 1013.982300,745.000000 870.000000,745.000000  M1035.447998,54.000225   C1030.159302,54.333553 1024.848633,55.147865 1019.586182,54.906929   C1005.706726,54.271465 991.669495,57.050491 977.944031,53.077850   C960.511047,56.364677 942.959290,52.906849 925.488159,54.003174   C920.863708,54.293365 916.238281,54.922348 911.619019,54.871746   C899.634277,54.740448 887.652527,54.072845 875.669983,54.080898   C864.014587,54.088730 852.360107,54.897369 840.704224,54.926678   C831.403076,54.950062 822.098816,54.024014 812.798462,54.066990   C798.340576,54.133801 783.885132,54.913944 769.428162,54.929638   C755.300415,54.944973 741.172852,54.323833 727.043457,54.093304   C718.463379,53.953312 709.879944,54.008831 701.297974,54.003567   C683.800110,53.992832 666.301880,53.944717 648.804504,54.037907   C644.182617,54.062519 639.562622,54.772560 634.942688,54.761608   C629.205811,54.748016 623.467346,54.058846 617.734070,54.115360   C607.860107,54.212696 597.989929,54.877499 588.117493,54.893791   C580.077026,54.907063 572.033691,54.019901 563.994934,54.068130   C551.092041,54.145535 538.193420,54.799309 525.289856,54.961815   C512.044312,55.128628 498.793518,55.121677 485.547577,54.968044   C467.085022,54.753902 448.625549,54.277256 430.163055,54.051899   C426.876984,54.011787 423.580811,54.939514 420.292389,54.919350   C407.071350,54.838287 393.851410,54.392147 380.631287,54.401321   C366.577972,54.411076 352.524384,54.974117 338.471893,54.936573   C327.432190,54.907078 316.393799,54.336517 305.355194,53.993286   C303.404236,53.932621 301.444427,53.629642 299.507416,53.746899   C294.150970,54.071152 288.804199,54.903111 283.454041,54.899200   C275.748657,54.893574 268.037903,53.971336 260.340088,54.096100   C251.937973,54.232269 243.553558,55.440178 235.151138,55.585602   C226.355576,55.737835 217.548630,55.140041 208.744873,54.956020   C204.833206,54.874252 200.917145,55.006466 197.003036,55.036068   C192.253082,55.071987 187.503067,55.097019 182.753174,55.138050   C181.429459,55.149487 180.091980,55.089336 178.785126,55.254383   C174.558090,55.788227 170.343918,56.423004 166.121841,56.997280   C161.547302,57.619503 156.936768,58.038700 152.400757,58.868118   C145.682571,60.096554 138.994308,61.512398 132.334900,63.030861   C127.226440,64.195679 121.572624,64.615265 117.241707,67.186218   C109.270424,71.918198 100.103218,74.088356 92.704002,80.225006   C87.187248,84.800400 81.236427,88.283783 80.891312,96.371666   C80.859360,97.120544 80.372467,97.975616 79.848946,98.558914   C72.928970,106.269264 70.811790,115.912651 69.021652,125.639114   C67.176018,135.667099 65.417572,145.716980 63.944794,155.804565   C63.433075,159.309509 64.115318,162.971817 63.862473,166.534592   C63.002209,178.656189 61.805676,190.755859 61.090809,202.884735   C60.849716,206.975189 61.870869,211.125351 61.918560,215.252792   C61.949722,217.949463 60.877071,220.668503 60.974186,223.353073   C61.330715,233.208801 63.091282,243.148605 62.272827,252.884369   C60.470692,274.321259 60.604156,295.851959 60.725693,317.220062   C60.806213,331.377014 60.686184,345.636292 61.075947,359.839447   C61.150841,362.568695 62.789158,365.292938 62.689377,367.981781   C62.418072,375.292816 61.175385,382.578308 61.083858,389.883514   C60.840664,409.294678 60.876953,428.712006 61.042366,448.124786   C61.160820,462.026337 61.855137,475.923615 61.930386,489.824707   C61.976158,498.280029 61.224972,506.736847 61.054989,515.197510   C60.989101,518.477173 61.748528,521.767700 61.770355,525.055725   C61.853935,537.645935 61.725693,550.237488 61.808990,562.827698   C61.851646,569.275146 62.229141,575.719727 62.354893,582.167480   C62.470207,588.080261 62.139683,594.018860 62.577869,599.903442   C63.016342,605.791870 64.297188,611.612366 64.967415,617.490051   C65.858574,625.305420 65.022675,633.361023 68.725479,640.763611   C69.583023,642.477966 69.640594,644.603516 70.004120,646.551453   C70.622864,649.867065 70.464493,653.555237 71.909767,656.449097   C77.832939,668.308899 82.518738,681.070312 93.847595,689.369446   C98.548248,692.812866 102.285141,697.616882 108.691376,698.548157   C110.784660,698.852478 112.610985,700.891724 114.595413,702.077209   C116.277802,703.082275 117.908058,704.342834 119.740860,704.899780   C129.284195,707.800415 138.852722,710.632080 148.483734,713.222778   C151.744217,714.099792 155.210953,714.220581 158.588638,714.645569   C159.699585,714.785339 160.903244,714.561707 161.934875,714.899780   C170.922913,717.845154 180.137207,718.849915 189.576950,719.127014   C197.118179,719.348389 204.614441,720.829651 212.152115,721.516174   C220.778976,722.302002 229.421600,722.985352 238.072083,723.421753   C246.662140,723.855042 255.278580,723.770447 263.867401,724.219910   C268.303925,724.452026 272.701202,725.814758 277.123901,725.856995   C288.716095,725.967590 300.316467,725.364685 311.906311,725.536743   C331.175873,725.822632 350.439941,726.485535 369.705750,727.010071   C371.692871,727.064087 373.674500,727.311096 375.661682,727.374634   C380.238159,727.520996 385.208069,728.810608 389.312805,727.472351   C397.945160,724.658020 406.184540,728.703369 414.662720,727.526672   C420.086060,726.773987 425.734314,727.787537 431.278595,727.726074   C439.264954,727.637573 447.340210,726.440918 455.207825,727.289856   C463.409882,728.174988 471.441956,726.577148 479.717773,727.394836   C488.482666,728.261047 497.568115,726.721069 506.437378,728.856201   C507.858643,729.198364 509.428284,729.041321 510.919739,728.953247   C515.593872,728.677063 520.258728,728.185242 524.935669,728.026917   C537.140686,727.613708 549.348999,727.124573 561.558228,727.051514   C577.732300,726.954773 593.908997,727.175476 610.083496,727.360779   C616.805481,727.437805 623.523315,727.895508 630.245178,727.960083   C636.647583,728.021606 643.053467,727.829773 649.456421,727.687012   C654.666626,727.570862 659.876404,727.190308 665.083374,727.239990   C671.126526,727.297546 677.167908,727.928528 683.207275,727.888000   C690.519836,727.838989 697.829773,727.102905 705.140076,727.115356   C712.687805,727.128113 720.232239,727.858521 727.782288,727.959167   C739.363037,728.113586 750.949158,728.126709 762.529663,727.961182   C774.746826,727.786560 786.958618,727.257019 799.175415,727.027222   C806.920776,726.881470 814.672424,726.908447 822.419006,727.017944   C842.152649,727.296814 861.884521,727.870239 881.618225,727.927063   C895.073914,727.965759 908.530212,727.225769 921.989014,727.060425   C926.441895,727.005676 930.907288,727.978271 935.360352,727.925720   C948.068481,727.775635 960.773804,727.060242 973.479126,727.087402   C989.431030,727.121582 1005.400208,728.281128 1021.327271,727.802551   C1033.537476,727.435730 1045.692871,726.594116 1057.875122,727.995728   C1060.145508,728.256958 1062.438354,728.656799 1064.704346,728.568665   C1075.969238,728.130005 1087.238770,726.996460 1098.486328,727.205872   C1106.501465,727.355225 1114.415771,728.361511 1122.168701,725.482422   C1123.213623,725.094421 1124.571899,724.834473 1125.574951,725.160889   C1134.640747,728.111511 1143.593750,724.151001 1152.628784,724.772278   C1154.585938,724.906799 1156.632080,723.444275 1158.667847,722.816101   C1160.796753,722.159119 1162.934204,721.467957 1165.118164,721.064148   C1169.399536,720.272766 1173.768311,719.900818 1178.005493,718.935974   C1184.410400,717.477539 1190.735840,715.668152 1197.089844,713.988098   C1198.177124,713.700562 1199.359253,713.511963 1200.292236,712.941895   C1205.862061,709.538574 1211.424927,706.117188 1216.873169,702.524902   C1218.803589,701.252014 1220.607300,699.655396 1222.117554,697.903809   C1225.351196,694.153564 1228.631226,690.391296 1231.389648,686.295471   C1235.456421,680.257019 1239.140015,673.956177 1242.873047,667.699158   C1244.344727,665.232483 1246.017700,662.711914 1246.709106,659.989807   C1248.133179,654.381958 1248.935547,648.617615 1250.041992,642.927063   C1250.479248,640.678223 1251.217651,638.476868 1251.511841,636.213989   C1251.931641,632.985840 1251.882935,629.692749 1252.370361,626.478394   C1253.087280,621.750305 1254.212646,617.084473 1254.947021,612.358459   C1255.399414,609.447021 1256.437866,606.087280 1255.472168,603.606506   C1253.432129,598.365479 1253.869751,593.725586 1255.776611,588.668152   C1256.796997,585.961792 1256.932739,582.809875 1256.950195,579.855957   C1257.052002,562.691956 1256.933472,545.526611 1257.045410,528.362732   C1257.074463,523.903137 1257.983276,519.443176 1257.928101,514.990295   C1257.795410,504.280426 1257.074463,493.574707 1257.072754,482.867249   C1257.071167,472.329254 1257.942505,461.790649 1257.922485,451.253265   C1257.898804,438.771149 1257.186768,426.291504 1257.062012,413.807922   C1257.000854,407.689087 1257.804199,401.564423 1257.825317,395.441071   C1257.843506,390.149292 1256.951172,384.846039 1257.091919,379.564667   C1257.394165,368.221497 1258.355225,356.893799 1258.566650,345.550842   C1258.739258,336.293640 1258.277222,327.021393 1257.966797,317.760132   C1257.856323,314.462738 1257.054932,311.173157 1257.106934,307.888550   C1257.239624,299.513824 1257.965576,291.142365 1257.922119,282.772369   C1257.856201,270.065216 1255.993896,257.205505 1257.432495,244.702576   C1258.627319,234.316452 1256.547729,224.235992 1257.541504,213.876450   C1258.588501,202.959961 1255.443359,191.710129 1255.141357,180.578506   C1254.740967,165.814682 1252.056763,151.437637 1249.520630,136.996887   C1249.092651,134.559464 1249.481201,131.849274 1248.566895,129.649796   C1245.223755,121.606384 1241.619873,113.662575 1237.831787,105.817566   C1236.483276,103.024826 1233.239502,100.808861 1232.754883,98.002563   C1231.433716,90.352036 1225.044556,87.251564 1220.305298,82.775932   C1217.646851,80.265327 1213.570679,79.298813 1210.748657,76.909767   C1204.179688,71.348900 1196.557983,67.940948 1188.391846,66.222168   C1179.785889,64.410835 1171.533325,61.503601 1162.681885,60.111328   C1148.990601,57.957821 1135.340820,55.816212 1121.527954,55.105896   C1111.140747,54.571747 1100.701904,55.122364 1090.289795,54.957882   C1083.162231,54.845287 1076.043701,54.150341 1068.916138,54.042980   C1058.079346,53.879742 1047.238403,54.000233 1035.447998,54.000225  z"/>
<path fill="#323946" opacity="1.000000" stroke="none" d=" M1035.923584,54.000221   C1047.238403,54.000233 1058.079346,53.879742 1068.916138,54.042980   C1076.043701,54.150341 1083.162231,54.845287 1090.289795,54.957882   C1100.701904,55.122364 1111.140747,54.571747 1121.527954,55.105896   C1135.340820,55.816212 1148.990601,57.957821 1162.681885,60.111328   C1171.533325,61.503601 1179.785889,64.410835 1188.391846,66.222168   C1196.557983,67.940948 1204.179688,71.348900 1210.748657,76.909767   C1213.570679,79.298813 1217.646851,80.265327 1220.305298,82.775932   C1225.044556,87.251564 1231.433716,90.352036 1232.754883,98.002563   C1233.239502,100.808861 1236.483276,103.024826 1237.831787,105.817566   C1241.619873,113.662575 1245.223755,121.606384 1248.566895,129.649796   C1249.481201,131.849274 1249.092651,134.559464 1249.520630,136.996887   C1252.056763,151.437637 1254.740967,165.814682 1255.141357,180.578506   C1255.443359,191.710129 1258.588501,202.959961 1257.541504,213.876450   C1256.547729,224.235992 1258.627319,234.316452 1257.432495,244.702576   C1255.993896,257.205505 1257.856201,270.065216 1257.922119,282.772369   C1257.965576,291.142365 1257.239624,299.513824 1257.106934,307.888550   C1257.054932,311.173157 1257.856323,314.462738 1257.966797,317.760132   C1258.277222,327.021393 1258.739258,336.293640 1258.566650,345.550842   C1258.355225,356.893799 1257.394165,368.221497 1257.091919,379.564667   C1256.951172,384.846039 1257.843506,390.149292 1257.825317,395.441071   C1257.804199,401.564423 1257.000854,407.689087 1257.062012,413.807922   C1257.186768,426.291504 1257.898804,438.771149 1257.922485,451.253265   C1257.942505,461.790649 1257.071167,472.329254 1257.072754,482.867249   C1257.074463,493.574707 1257.795410,504.280426 1257.928101,514.990295   C1257.983276,519.443176 1257.074463,523.903137 1257.045410,528.362732   C1256.933472,545.526611 1257.052002,562.691956 1256.950195,579.855957   C1256.932739,582.809875 1256.796997,585.961792 1255.776611,588.668152   C1253.869751,593.725586 1253.432129,598.365479 1255.472168,603.606506   C1256.437866,606.087280 1255.399414,609.447021 1254.947021,612.358459   C1254.212646,617.084473 1253.087280,621.750305 1252.370361,626.478394   C1251.882935,629.692749 1251.931641,632.985840 1251.511841,636.213989   C1251.217651,638.476868 1250.479248,640.678223 1250.041992,642.927063   C1248.935547,648.617615 1248.133179,654.381958 1246.709106,659.989807   C1246.017700,662.711914 1244.344727,665.232483 1242.873047,667.699158   C1239.140015,673.956177 1235.456421,680.257019 1231.389648,686.295471   C1228.631226,690.391296 1225.351196,694.153564 1222.117554,697.903809   C1220.607300,699.655396 1218.803589,701.252014 1216.873169,702.524902   C1211.424927,706.117188 1205.862061,709.538574 1200.292236,712.941895   C1199.359253,713.511963 1198.177124,713.700562 1197.089844,713.988098   C1190.735840,715.668152 1184.410400,717.477539 1178.005493,718.935974   C1173.768311,719.900818 1169.399536,720.272766 1165.118164,721.064148   C1162.934204,721.467957 1160.796753,722.159119 1158.667847,722.816101   C1156.632080,723.444275 1154.585938,724.906799 1152.628784,724.772278   C1143.593750,724.151001 1134.640747,728.111511 1125.574951,725.160889   C1124.571899,724.834473 1123.213623,725.094421 1122.168701,725.482422   C1114.415771,728.361511 1106.501465,727.355225 1098.486328,727.205872   C1087.238770,726.996460 1075.969238,728.130005 1064.704346,728.568665   C1062.438354,728.656799 1060.145508,728.256958 1057.875122,727.995728   C1045.692871,726.594116 1033.537476,727.435730 1021.327271,727.802551   C1005.400208,728.281128 989.431030,727.121582 973.479126,727.087402   C960.773804,727.060242 948.068481,727.775635 935.360352,727.925720   C930.907288,727.978271 926.441895,727.005676 921.989014,727.060425   C908.530212,727.225769 895.073914,727.965759 881.618225,727.927063   C861.884521,727.870239 842.152649,727.296814 822.419006,727.017944   C814.672424,726.908447 806.920776,726.881470 799.175415,727.027222   C786.958618,727.257019 774.746826,727.786560 762.529663,727.961182   C750.949158,728.126709 739.363037,728.113586 727.782288,727.959167   C720.232239,727.858521 712.687805,727.128113 705.140076,727.115356   C697.829773,727.102905 690.519836,727.838989 683.207275,727.888000   C677.167908,727.928528 671.126526,727.297546 665.083374,727.239990   C659.876404,727.190308 654.666626,727.570862 649.456421,727.687012   C643.053467,727.829773 636.647583,728.021606 630.245178,727.960083   C623.523315,727.895508 616.805481,727.437805 610.083496,727.360779   C593.908997,727.175476 577.732300,726.954773 561.558228,727.051514   C549.348999,727.124573 537.140686,727.613708 524.935669,728.026917   C520.258728,728.185242 515.593872,728.677063 510.919739,728.953247   C509.428284,729.041321 507.858643,729.198364 506.437378,728.856201   C497.568115,726.721069 488.482666,728.261047 479.717773,727.394836   C471.441956,726.577148 463.409882,728.174988 455.207825,727.289856   C447.340210,726.440918 439.264954,727.637573 431.278595,727.726074   C425.734314,727.787537 420.086060,726.773987 414.662720,727.526672   C406.184540,728.703369 397.945160,724.658020 389.312805,727.472351   C385.208069,728.810608 380.238159,727.520996 375.661682,727.374634   C373.674500,727.311096 371.692871,727.064087 369.705750,727.010071   C350.439941,726.485535 331.175873,725.822632 311.906311,725.536743   C300.316467,725.364685 288.716095,725.967590 277.123901,725.856995   C272.701202,725.814758 268.303925,724.452026 263.867401,724.219910   C255.278580,723.770447 246.662140,723.855042 238.072083,723.421753   C229.421600,722.985352 220.778976,722.302002 212.152115,721.516174   C204.614441,720.829651 197.118179,719.348389 189.576950,719.127014   C180.137207,718.849915 170.922913,717.845154 161.934875,714.899780   C160.903244,714.561707 159.699585,714.785339 158.588638,714.645569   C155.210953,714.220581 151.744217,714.099792 148.483734,713.222778   C138.852722,710.632080 129.284195,707.800415 119.740860,704.899780   C117.908058,704.342834 116.277802,703.082275 114.595413,702.077209   C112.610985,700.891724 110.784660,698.852478 108.691376,698.548157   C102.285141,697.616882 98.548248,692.812866 93.847595,689.369446   C82.518738,681.070312 77.832939,668.308899 71.909767,656.449097   C70.464493,653.555237 70.622864,649.867065 70.004120,646.551453   C69.640594,644.603516 69.583023,642.477966 68.725479,640.763611   C65.022675,633.361023 65.858574,625.305420 64.967415,617.490051   C64.297188,611.612366 63.016342,605.791870 62.577869,599.903442   C62.139683,594.018860 62.470207,588.080261 62.354893,582.167480   C62.229141,575.719727 61.851646,569.275146 61.808990,562.827698   C61.725693,550.237488 61.853935,537.645935 61.770355,525.055725   C61.748528,521.767700 60.989101,518.477173 61.054989,515.197510   C61.224972,506.736847 61.976158,498.280029 61.930386,489.824707   C61.855137,475.923615 61.160820,462.026337 61.042366,448.124786   C60.876953,428.712006 60.840664,409.294678 61.083858,389.883514   C61.175385,382.578308 62.418072,375.292816 62.689377,367.981781   C62.789158,365.292938 61.150841,362.568695 61.075947,359.839447   C60.686184,345.636292 60.806213,331.377014 60.725693,317.220062   C60.604156,295.851959 60.470692,274.321259 62.272827,252.884369   C63.091282,243.148605 61.330715,233.208801 60.974186,223.353073   C60.877071,220.668503 61.949722,217.949463 61.918560,215.252792   C61.870869,211.125351 60.849716,206.975189 61.090809,202.884735   C61.805676,190.755859 63.002209,178.656189 63.862473,166.534592   C64.115318,162.971817 63.433075,159.309509 63.944794,155.804565   C65.417572,145.716980 67.176018,135.667099 69.021652,125.639114   C70.811790,115.912651 72.928970,106.269264 79.848946,98.558914   C80.372467,97.975616 80.859360,97.120544 80.891312,96.371666   C81.236427,88.283783 87.187248,84.800400 92.704002,80.225006   C100.103218,74.088356 109.270424,71.918198 117.241707,67.186218   C121.572624,64.615265 127.226440,64.195679 132.334900,63.030861   C138.994308,61.512398 145.682571,60.096554 152.400757,58.868118   C156.936768,58.038700 161.547302,57.619503 166.121841,56.997280   C170.343918,56.423004 174.558090,55.788227 178.785126,55.254383   C180.091980,55.089336 181.429459,55.149487 182.753174,55.138050   C187.503067,55.097019 192.253082,55.071987 197.003036,55.036068   C200.917145,55.006466 204.833206,54.874252 208.744873,54.956020   C217.548630,55.140041 226.355576,55.737835 235.151138,55.585602   C243.553558,55.440178 251.937973,54.232269 260.340088,54.096100   C268.037903,53.971336 275.748657,54.893574 283.454041,54.899200   C288.804199,54.903111 294.150970,54.071152 299.507416,53.746899   C301.444427,53.629642 303.404236,53.932621 305.355194,53.993286   C316.393799,54.336517 327.432190,54.907078 338.471893,54.936573   C352.524384,54.974117 366.577972,54.411076 380.631287,54.401321   C393.851410,54.392147 407.071350,54.838287 420.292389,54.919350   C423.580811,54.939514 426.876984,54.011787 430.163055,54.051899   C448.625549,54.277256 467.085022,54.753902 485.547577,54.968044   C498.793518,55.121677 512.044312,55.128628 525.289856,54.961815   C538.193420,54.799309 551.092041,54.145535 563.994934,54.068130   C572.033691,54.019901 580.077026,54.907063 588.117493,54.893791   C597.989929,54.877499 607.860107,54.212696 617.734070,54.115360   C623.467346,54.058846 629.205811,54.748016 634.942688,54.761608   C639.562622,54.772560 644.182617,54.062519 648.804504,54.037907   C666.301880,53.944717 683.800110,53.992832 701.297974,54.003567   C709.879944,54.008831 718.463379,53.953312 727.043457,54.093304   C741.172852,54.323833 755.300415,54.944973 769.428162,54.929638   C783.885132,54.913944 798.340576,54.133801 812.798462,54.066990   C822.098816,54.024014 831.403076,54.950062 840.704224,54.926678   C852.360107,54.897369 864.014587,54.088730 875.669983,54.080898   C887.652527,54.072845 899.634277,54.740448 911.619019,54.871746   C916.238281,54.922348 920.863708,54.293365 925.488159,54.003174   C942.959290,52.906849 960.511047,56.364677 977.944031,53.077850   C991.669495,57.050491 1005.706726,54.271465 1019.586182,54.906929   C1024.848633,55.147865 1030.159302,54.333553 1035.923584,54.000221  M988.234070,355.727264   C991.708496,351.078888 995.619873,346.691193 998.577148,341.734314   C1008.258423,325.506500 1011.764221,307.929199 1009.806885,289.067474   C1007.883911,270.536011 1001.117737,254.196152 988.397644,240.691360   C969.415771,220.538666 945.912720,211.762146 918.227417,214.198547   C891.276367,216.570328 870.201538,228.892563 855.333435,251.424561   C844.196350,268.302277 840.403870,286.994720 842.259033,307.116302   C844.501648,331.439423 855.529541,350.848297 874.532349,365.653137   C907.283691,391.169495 959.410339,387.808044 988.234070,355.727264  M425.283813,362.675262   C438.844482,352.604431 448.181305,339.246948 453.132080,323.370087   C469.495453,270.894073 432.355072,218.105011 377.381165,215.727875   C357.001953,214.846649 338.707825,221.545486 323.046967,234.778915   C302.432312,252.198273 291.651611,274.582397 292.904236,301.467529   C294.008118,325.160126 303.726044,345.277252 322.369843,360.971771   C351.821747,385.764587 394.624146,386.919342 425.283813,362.675262  M398.943848,502.499512   C398.943848,508.588654 398.943848,514.677795 398.943848,520.666382   C404.694244,520.666382 409.760773,520.666382 414.695190,520.666382   C414.695190,497.288147 414.695190,474.246002 414.695190,451.124695   C408.026245,451.124695 401.721832,451.124695 395.268951,451.124695   C388.660004,464.491150 382.071381,477.816498 375.125336,491.864746   C373.882324,489.623657 373.048798,488.249359 372.335876,486.815063   C366.932800,475.944916 361.596191,465.041321 356.109314,454.213806   C355.464417,452.941101 354.077972,451.208649 352.959839,451.150970   C347.039520,450.845490 341.095093,451.007538 335.207581,451.007538   C335.207581,474.648804 335.207581,497.686829 335.207581,520.692322   C340.628723,520.692322 345.699890,520.692322 351.201172,520.692322   C351.201172,506.556244 351.201172,492.723114 351.201172,478.889984   C351.455444,478.838470 351.709747,478.786926 351.964020,478.735413   C357.700378,490.466797 363.436737,502.198181 369.207336,513.999634   C371.400269,513.999634 373.435455,513.739380 375.378235,514.052368   C379.770172,514.760071 381.769684,512.753906 383.436981,508.829041   C386.747253,501.036407 390.677673,493.506073 394.390686,485.886292   C395.568542,483.469086 396.869690,481.111969 398.114441,478.727325   C398.390930,478.847809 398.667389,478.968262 398.943848,479.088715   C398.943848,486.559021 398.943848,494.029358 398.943848,502.499512  M929.436157,481.048157   C922.743652,472.128204 916.079346,463.186798 909.326782,454.312531   C908.369385,453.054260 907.045227,451.283112 905.783142,451.188690   C900.897034,450.823212 895.967285,451.040131 891.181152,451.040131   C891.181152,474.744781 891.181152,497.651245 891.181152,520.609070   C896.867798,520.609070 902.238953,520.609070 908.187622,520.609070   C908.187622,507.097717 908.187622,493.971191 908.187622,479.902771   C918.405762,493.191833 927.913208,505.606415 937.506348,517.954468   C938.451843,519.171509 939.866089,520.747192 941.159180,520.842041   C945.887573,521.188904 950.656799,520.979248 955.531128,520.979248   C955.531128,497.369781 955.531128,474.469055 955.531128,451.365417   C949.899109,451.365417 944.534363,451.365417 938.573975,451.365417   C938.573975,465.038849 938.573975,478.353882 938.573975,493.183289   C935.044983,488.480164 932.465637,485.042572 929.436157,481.048157  M746.666260,506.856812   C748.654541,510.694397 750.505249,514.613770 752.711060,518.321960   C753.413513,519.502808 755.026794,520.820251 756.279541,520.879211   C762.041992,521.150452 767.824402,520.998718 774.416016,520.998718   C771.776306,516.762146 769.522156,513.150513 767.274231,509.534973   C764.928528,505.762238 762.588745,501.985809 760.186340,498.114349   C760.980408,497.461609 761.460876,497.033051 761.974792,496.649261   C770.750793,490.096100 774.381470,479.692322 771.710571,468.730743   C769.416077,459.313934 762.161072,452.957428 750.636719,451.844696   C741.068237,450.920807 731.380554,451.215302 721.744812,451.011230   C718.500671,450.942505 715.253784,451.000366 712.127014,451.000366   C712.127014,474.713531 712.127014,497.644135 712.127014,520.761047   C718.128662,520.761047 723.869568,520.761047 730.108398,520.761047   C730.108398,514.287598 730.108398,508.037079 730.108398,501.341064   C733.244019,501.341064 735.936768,501.657349 738.523865,501.269226   C742.733643,500.637695 745.142517,502.293060 746.666260,506.856812  M556.579346,492.996063   C565.010864,492.996063 573.442444,492.996063 581.846924,492.996063   C581.846924,487.920227 581.846924,483.534698 581.846924,478.520203   C570.737183,478.520203 560.026855,478.520203 549.427246,478.520203   C549.427246,473.805054 549.427246,469.734406 549.427246,465.165161   C561.698059,465.165161 573.604553,465.165161 585.762817,465.165161   C585.762817,460.263580 585.762817,455.874420 585.762817,451.303864   C567.431519,451.303864 549.389648,451.303864 531.258545,451.303864   C531.258545,474.620697 531.258545,497.635010 531.258545,520.623413   C550.010010,520.623413 568.383728,520.623413 586.655273,520.623413   C586.655273,515.839783 586.655273,511.439667 586.655273,506.568512   C574.009094,506.568512 561.754700,506.568512 549.380981,506.568512   C549.380981,501.856262 549.380981,497.631927 549.380981,492.996216   C551.672485,492.996216 553.638245,492.996216 556.579346,492.996063  M642.775696,285.961151   C640.330078,277.700592 638.872559,268.978882 635.269348,261.258575   C618.932678,226.255386 582.142883,207.577255 543.844299,214.034088   C518.447144,218.315826 498.873840,231.239700 485.378296,253.190674   C474.477936,270.920471 471.343933,290.209351 474.046722,310.678070   C477.756561,338.773285 492.507446,359.366455 516.847107,373.163483   C530.945007,381.155029 546.405273,383.773651 562.557373,382.999512   C594.311096,381.477692 617.644409,366.482971 633.281738,339.123047   C642.576294,322.860718 643.936646,305.078308 642.775696,285.961151  M824.388611,321.725464   C825.227112,313.499451 826.737183,305.277283 826.783752,297.046783   C826.952759,267.175598 813.886658,243.763565 789.557373,227.169785   C768.725769,212.961609 745.310364,209.815170 720.905579,215.806061   C699.682617,221.015839 682.824524,232.937561 671.073120,251.368530   C655.992004,275.021881 653.751465,300.700592 662.444397,326.894379   C670.144104,350.095306 686.041321,366.487000 708.641418,376.270172   C723.567078,382.731201 738.972961,384.100891 754.968262,382.002930   C773.246277,379.605591 788.731262,371.736176 802.057861,359.231293   C812.895630,349.061829 819.282227,336.246246 824.388611,321.725464  z"/>
<path fill="#A0C351" opacity="1.000000" stroke="none" d=" M987.984680,355.979736   C959.410339,387.808044 907.283691,391.169495 874.532349,365.653137   C855.529541,350.848297 844.501648,331.439423 842.259033,307.116302   C840.403870,286.994720 844.196350,268.302277 855.333435,251.424561   C870.201538,228.892563 891.276367,216.570328 918.227417,214.198547   C945.912720,211.762146 969.415771,220.538666 988.397644,240.691360   C1001.117737,254.196152 1007.883911,270.536011 1009.806885,289.067474   C1011.764221,307.929199 1008.258423,325.506500 998.577148,341.734314   C995.619873,346.691193 991.708496,351.078888 987.984680,355.979736  M944.106201,246.433640   C939.935303,244.004028 935.980164,240.989670 931.520020,239.343979   C928.383667,238.186707 923.831787,237.545044 921.164124,238.988037   C906.092590,247.140732 891.298157,255.827621 876.684875,264.782288   C874.447144,266.153473 872.430603,269.833435 872.369812,272.492645   C871.981567,289.474457 872.009399,306.472534 872.336060,323.456848   C872.386475,326.075256 874.015564,329.562103 876.071289,331.062561   C880.866699,334.562653 886.129822,337.683960 891.629272,339.903870   C903.604370,344.737854 911.828918,339.043030 911.919312,326.249023   C912.027649,310.924805 911.968018,295.599274 911.950745,280.274353   C911.945618,275.709778 909.196228,273.782715 905.382690,276.152832   C904.059570,276.975189 903.440552,279.794525 903.420044,281.711548   C903.261536,296.535095 903.295288,311.361176 903.353027,326.186188   C903.365112,329.288483 902.776367,331.783081 899.392029,332.799011   C896.136047,333.776337 881.568481,326.722717 880.432495,323.480438   C880.166870,322.722290 880.215210,321.834564 880.213745,321.006317   C880.186890,305.847961 880.061096,290.687805 880.301392,275.533478   C880.331604,273.627319 881.830688,270.960052 883.453491,269.987701   C896.446594,262.202545 909.589355,254.661606 922.819275,247.284607   C924.379700,246.414536 927.189209,246.190308 928.666931,247.015198   C942.036377,254.477982 955.302246,262.134918 968.410339,270.046753   C970.112915,271.074432 971.689758,273.853516 971.726807,275.850983   C972.001343,290.671082 971.791199,305.499390 971.934509,320.323212   C971.964417,323.415283 970.869446,325.146606 968.224854,326.636505   C956.912292,333.009796 945.548340,339.318726 934.530090,346.176483   C928.724792,349.789703 923.920837,351.091614 917.981140,346.292419   C913.389343,342.582367 910.821411,343.432861 905.654541,348.316711   C911.524902,351.713348 917.082153,355.355804 923.041138,358.138153   C925.043945,359.073303 928.495728,358.589661 930.557434,357.444397   C945.252014,349.281372 959.739563,340.746735 974.336365,332.406311   C978.238403,330.176758 979.872192,326.843018 979.871887,322.522003   C979.870850,306.197632 979.853638,289.873260 979.860291,273.548889   C979.862122,268.935944 977.764526,265.676758 973.777344,263.421265   C964.070557,257.930206 954.410278,252.356918 944.106201,246.433640  M961.969116,307.612885   C960.877747,299.971161 958.063354,297.204620 948.637817,295.291016   C942.952393,294.136749 937.117065,293.694977 931.464050,292.422485   C929.741150,292.034698 927.623901,290.183441 927.132690,288.563995   C926.744751,287.285095 928.138611,284.642212 929.487671,283.798004   C936.527954,279.392334 946.856201,282.328949 951.589355,289.055481   C952.657654,290.573578 956.121521,290.405914 958.482605,291.014252   C958.829285,289.424805 959.730896,287.718140 959.424194,286.266785   C958.260681,280.759521 954.782959,276.532257 949.295166,275.806122   C942.501953,274.907227 935.414795,274.589661 928.657776,275.510895   C921.647156,276.466766 917.248840,282.683899 917.414490,288.825317   C917.591064,295.370636 921.709167,299.553955 929.692383,301.009460   C935.572266,302.081482 941.577881,302.593689 947.350891,304.053741   C949.450317,304.584747 951.038330,307.137665 952.859741,308.768036   C950.949524,310.799011 949.375183,313.853027 947.048889,314.616699   C943.711853,315.712189 939.826538,315.243103 936.174988,315.250000   C930.852173,315.260040 926.509399,314.004272 924.460876,308.038849   C923.991455,306.671875 920.130249,306.469666 917.829956,305.731445   C917.399231,307.443359 916.390808,309.245636 916.641968,310.850861   C917.533630,316.548553 921.510071,319.940247 926.641541,321.603027   C934.542603,324.163330 942.647644,324.621399 950.679199,321.945221   C957.176697,319.780212 961.744141,315.899750 961.969116,307.612885  z"/>
<path fill="#565C4D" opacity="1.000000" stroke="none" d=" M424.990601,362.877563   C394.624146,386.919342 351.821747,385.764587 322.369843,360.971771   C303.726044,345.277252 294.008118,325.160126 292.904236,301.467529   C291.651611,274.582397 302.432312,252.198273 323.046967,234.778915   C338.707825,221.545486 357.001953,214.846649 377.381165,215.727875   C432.355072,218.105011 469.495453,270.894073 453.132080,323.370087   C448.181305,339.246948 438.844482,352.604431 424.990601,362.877563  M372.318115,353.957825   C372.930084,358.719025 373.400269,363.505402 374.237885,368.226593   C374.499481,369.700958 375.753052,370.999359 377.196075,373.488312   C378.320496,365.182220 379.199890,358.686249 380.762726,352.032715   C401.795410,337.556702 411.196930,312.199951 407.622375,285.985565   C404.615845,263.936859 392.994080,246.109818 376.950439,230.295563   C376.116302,229.006073 375.282196,227.716583 374.638763,226.721893   C364.169495,237.450439 353.658325,247.646347 348.424011,262.440216   C342.189178,277.014221 340.612244,292.174408 342.796021,307.785400   C344.630341,320.898254 351.071503,331.878998 359.432312,341.711609   C363.114532,346.042023 367.932709,349.406433 372.318115,353.957825  z"/>
<path fill="#399C44" opacity="1.000000" stroke="none" d=" M398.943848,501.999573   C398.943848,494.029358 398.943848,486.559021 398.943848,479.088715   C398.667389,478.968262 398.390930,478.847809 398.114441,478.727325   C396.869690,481.111969 395.568542,483.469086 394.390686,485.886292   C390.677673,493.506073 386.747253,501.036407 383.436981,508.829041   C381.769684,512.753906 379.770172,514.760071 375.378235,514.052368   C373.435455,513.739380 371.400269,513.999634 369.207336,513.999634   C363.436737,502.198181 357.700378,490.466797 351.964020,478.735413   C351.709747,478.786926 351.455444,478.838470 351.201172,478.889984   C351.201172,492.723114 351.201172,506.556244 351.201172,520.692322   C345.699890,520.692322 340.628723,520.692322 335.207581,520.692322   C335.207581,497.686829 335.207581,474.648804 335.207581,451.007538   C341.095093,451.007538 347.039520,450.845490 352.959839,451.150970   C354.077972,451.208649 355.464417,452.941101 356.109314,454.213806   C361.596191,465.041321 366.932800,475.944916 372.335876,486.815063   C373.048798,488.249359 373.882324,489.623657 375.125336,491.864746   C382.071381,477.816498 388.660004,464.491150 395.268951,451.124695   C401.721832,451.124695 408.026245,451.124695 414.695190,451.124695   C414.695190,474.246002 414.695190,497.288147 414.695190,520.666382   C409.760773,520.666382 404.694244,520.666382 398.943848,520.666382   C398.943848,514.677795 398.943848,508.588654 398.943848,501.999573  z"/>
<path fill="#9DC24B" opacity="1.000000" stroke="none" d=" M929.661194,481.326569   C932.465637,485.042572 935.044983,488.480164 938.573975,493.183289   C938.573975,478.353882 938.573975,465.038849 938.573975,451.365417   C944.534363,451.365417 949.899109,451.365417 955.531128,451.365417   C955.531128,474.469055 955.531128,497.369781 955.531128,520.979248   C950.656799,520.979248 945.887573,521.188904 941.159180,520.842041   C939.866089,520.747192 938.451843,519.171509 937.506348,517.954468   C927.913208,505.606415 918.405762,493.191833 908.187622,479.902771   C908.187622,493.971191 908.187622,507.097717 908.187622,520.609070   C902.238953,520.609070 896.867798,520.609070 891.181152,520.609070   C891.181152,497.651245 891.181152,474.744781 891.181152,451.040131   C895.967285,451.040131 900.897034,450.823212 905.783142,451.188690   C907.045227,451.283112 908.369385,453.054260 909.326782,454.312531   C916.079346,463.186798 922.743652,472.128204 929.661194,481.326569  z"/>
<path fill="#286291" opacity="1.000000" stroke="none" d=" M746.469360,506.537476   C745.142517,502.293060 742.733643,500.637695 738.523865,501.269226   C735.936768,501.657349 733.244019,501.341064 730.108398,501.341064   C730.108398,508.037079 730.108398,514.287598 730.108398,520.761047   C723.869568,520.761047 718.128662,520.761047 712.127014,520.761047   C712.127014,497.644135 712.127014,474.713531 712.127014,451.000366   C715.253784,451.000366 718.500671,450.942505 721.744812,451.011230   C731.380554,451.215302 741.068237,450.920807 750.636719,451.844696   C762.161072,452.957428 769.416077,459.313934 771.710571,468.730743   C774.381470,479.692322 770.750793,490.096100 761.974792,496.649261   C761.460876,497.033051 760.980408,497.461609 760.186340,498.114349   C762.588745,501.985809 764.928528,505.762238 767.274231,509.534973   C769.522156,513.150513 771.776306,516.762146 774.416016,520.998718   C767.824402,520.998718 762.041992,521.150452 756.279541,520.879211   C755.026794,520.820251 753.413513,519.502808 752.711060,518.321960   C750.505249,514.613770 748.654541,510.694397 746.469360,506.537476  M730.046143,469.730774   C730.046143,475.332703 730.046143,480.934601 730.046143,487.007141   C731.624146,487.007141 732.739258,487.010925 733.854370,487.006500   C737.838989,486.990723 741.845154,487.228271 745.803223,486.895172   C751.918152,486.380524 755.279053,482.084412 755.108276,475.573059   C754.948486,469.480103 751.352722,465.629639 745.222900,465.324310   C741.247559,465.126251 737.247986,465.422211 733.271729,465.233276   C730.497559,465.101471 729.747498,466.361694 730.046143,469.730774  z"/>
<path fill="#CD7870" opacity="1.000000" stroke="none" d=" M556.091675,492.996155   C553.638245,492.996216 551.672485,492.996216 549.380981,492.996216   C549.380981,497.631927 549.380981,501.856262 549.380981,506.568512   C561.754700,506.568512 574.009094,506.568512 586.655273,506.568512   C586.655273,511.439667 586.655273,515.839783 586.655273,520.623413   C568.383728,520.623413 550.010010,520.623413 531.258545,520.623413   C531.258545,497.635010 531.258545,474.620697 531.258545,451.303864   C549.389648,451.303864 567.431519,451.303864 585.762817,451.303864   C585.762817,455.874420 585.762817,460.263580 585.762817,465.165161   C573.604553,465.165161 561.698059,465.165161 549.427246,465.165161   C549.427246,469.734406 549.427246,473.805054 549.427246,478.520203   C560.026855,478.520203 570.737183,478.520203 581.846924,478.520203   C581.846924,483.534698 581.846924,487.920227 581.846924,492.996063   C573.442444,492.996063 565.010864,492.996063 556.091675,492.996155  z"/>
<path fill="#D0AEAC" opacity="1.000000" stroke="none" d=" M642.799805,286.419861   C643.936646,305.078308 642.576294,322.860718 633.281738,339.123047   C617.644409,366.482971 594.311096,381.477692 562.557373,382.999512   C546.405273,383.773651 530.945007,381.155029 516.847107,373.163483   C492.507446,359.366455 477.756561,338.773285 474.046722,310.678070   C471.343933,290.209351 474.477936,270.920471 485.378296,253.190674   C498.873840,231.239700 518.447144,218.315826 543.844299,214.034088   C582.142883,207.577255 618.932678,226.255386 635.269348,261.258575   C638.872559,268.978882 640.330078,277.700592 642.799805,286.419861  M597.021667,226.430710   C588.990967,223.421829 581.160095,219.588959 572.886292,217.582870   C557.654236,213.889725 542.588318,215.752380 528.142517,221.874207   C518.455139,225.979492 509.959259,231.795990 502.160767,238.968628   C486.039459,253.796127 477.762695,272.409882 476.156647,293.710571   C474.740387,312.494202 480.608612,329.664062 491.578369,345.106232   C505.746918,365.051361 525.106750,377.366821 549.072937,379.681091   C581.951477,382.856049 608.376709,369.897125 626.681946,341.992645   C639.904541,321.836212 643.937439,299.986267 637.040344,276.539673   C630.607544,254.671509 617.357605,238.174255 597.021667,226.430710  z"/>
<path fill="#B8C8D5" opacity="1.000000" stroke="none" d=" M824.219910,322.090515   C819.282227,336.246246 812.895630,349.061829 802.057861,359.231293   C788.731262,371.736176 773.246277,379.605591 754.968262,382.002930   C738.972961,384.100891 723.567078,382.731201 708.641418,376.270172   C686.041321,366.487000 670.144104,350.095306 662.444397,326.894379   C653.751465,300.700592 655.992004,275.021881 671.073120,251.368530   C682.824524,232.937561 699.682617,221.015839 720.905579,215.806061   C745.310364,209.815170 768.725769,212.961609 789.557373,227.169785   C813.886658,243.763565 826.952759,267.175598 826.783752,297.046783   C826.737183,305.277283 825.227112,313.499451 824.219910,322.090515  M813.199036,338.578613   C819.225647,327.500458 823.760437,315.885559 824.184631,303.148590   C825.054382,277.027618 815.961304,255.057236 796.415100,237.423325   C781.582886,224.042130 764.184265,216.260574 744.430908,216.096939   C714.295227,215.847321 690.229004,228.960785 673.804626,254.189636   C642.365173,302.482849 669.404480,361.937164 720.573608,376.956818   C756.284668,387.439087 794.719543,371.108948 813.199036,338.578613  z"/>
<path fill="#F7FAF1" opacity="1.000000" stroke="none" d=" M944.418701,246.625198   C954.410278,252.356918 964.070557,257.930206 973.777344,263.421265   C977.764526,265.676758 979.862122,268.935944 979.860291,273.548889   C979.853638,289.873260 979.870850,306.197632 979.871887,322.522003   C979.872192,326.843018 978.238403,330.176758 974.336365,332.406311   C959.739563,340.746735 945.252014,349.281372 930.557434,357.444397   C928.495728,358.589661 925.043945,359.073303 923.041138,358.138153   C917.082153,355.355804 911.524902,351.713348 905.654541,348.316711   C910.821411,343.432861 913.389343,342.582367 917.981140,346.292419   C923.920837,351.091614 928.724792,349.789703 934.530090,346.176483   C945.548340,339.318726 956.912292,333.009796 968.224854,326.636505   C970.869446,325.146606 971.964417,323.415283 971.934509,320.323212   C971.791199,305.499390 972.001343,290.671082 971.726807,275.850983   C971.689758,273.853516 970.112915,271.074432 968.410339,270.046753   C955.302246,262.134918 942.036377,254.477982 928.666931,247.015198   C927.189209,246.190308 924.379700,246.414536 922.819275,247.284607   C909.589355,254.661606 896.446594,262.202545 883.453491,269.987701   C881.830688,270.960052 880.331604,273.627319 880.301392,275.533478   C880.061096,290.687805 880.186890,305.847961 880.213745,321.006317   C880.215210,321.834564 880.166870,322.722290 880.432495,323.480438   C881.568481,326.722717 896.136047,333.776337 899.392029,332.799011   C902.776367,331.783081 903.365112,329.288483 903.353027,326.186188   C903.295288,311.361176 903.261536,296.535095 903.420044,281.711548   C903.440552,279.794525 904.059570,276.975189 905.382690,276.152832   C909.196228,273.782715 911.945618,275.709778 911.950745,280.274353   C911.968018,295.599274 912.027649,310.924805 911.919312,326.249023   C911.828918,339.043030 903.604370,344.737854 891.629272,339.903870   C886.129822,337.683960 880.866699,334.562653 876.071289,331.062561   C874.015564,329.562103 872.386475,326.075256 872.336060,323.456848   C872.009399,306.472534 871.981567,289.474457 872.369812,272.492645   C872.430603,269.833435 874.447144,266.153473 876.684875,264.782288   C891.298157,255.827621 906.092590,247.140732 921.164124,238.988037   C923.831787,237.545044 928.383667,238.186707 931.520020,239.343979   C935.980164,240.989670 939.935303,244.004028 944.418701,246.625198  z"/>
<path fill="#F7FAF1" opacity="1.000000" stroke="none" d=" M961.970093,308.027405   C961.744141,315.899750 957.176697,319.780212 950.679199,321.945221   C942.647644,324.621399 934.542603,324.163330 926.641541,321.603027   C921.510071,319.940247 917.533630,316.548553 916.641968,310.850861   C916.390808,309.245636 917.399231,307.443359 917.829956,305.731445   C920.130249,306.469666 923.991455,306.671875 924.460876,308.038849   C926.509399,314.004272 930.852173,315.260040 936.174988,315.250000   C939.826538,315.243103 943.711853,315.712189 947.048889,314.616699   C949.375183,313.853027 950.949524,310.799011 952.859741,308.768066   C951.038330,307.137665 949.450317,304.584747 947.350891,304.053741   C941.577881,302.593689 935.572266,302.081482 929.692383,301.009460   C921.709167,299.553955 917.591064,295.370636 917.414490,288.825317   C917.248840,282.683899 921.647156,276.466766 928.657776,275.510895   C935.414795,274.589661 942.501953,274.907227 949.295166,275.806122   C954.782959,276.532257 958.260681,280.759521 959.424194,286.266785   C959.730896,287.718140 958.829285,289.424805 958.482666,291.014252   C956.121521,290.405914 952.657654,290.573578 951.589355,289.055481   C946.856201,282.328949 936.527954,279.392334 929.487671,283.798004   C928.138611,284.642212 926.744751,287.285095 927.132690,288.563995   C927.623901,290.183441 929.741150,292.034698 931.464050,292.422485   C937.117065,293.694977 942.952393,294.136749 948.637817,295.291016   C958.063354,297.204620 960.877747,299.971161 961.970093,308.027405  z"/>
<path fill="#3EA042" opacity="1.000000" stroke="none" d=" M377.057434,230.954147   C392.994080,246.109818 404.615845,263.936859 407.622375,285.985565   C411.196930,312.199951 401.795410,337.556702 380.126648,351.859558   C378.202118,347.997101 376.913666,344.307831 375.723938,340.168213   C375.867889,333.138641 375.923309,326.559509 375.955688,319.980255   C375.994354,312.118988 375.906769,304.255493 376.067291,296.396912   C376.276245,286.166901 376.923187,275.940735 376.921722,265.712982   C376.920319,255.846970 376.276367,245.982269 376.059967,236.113815   C376.022430,234.402039 376.706604,232.674438 377.057434,230.954147  z"/>
<path fill="#54B545" opacity="1.000000" stroke="none" d=" M377.003937,230.624847   C376.706604,232.674438 376.022430,234.402039 376.059967,236.113815   C376.276367,245.982269 376.920319,255.846970 376.921722,265.712982   C376.923187,275.940735 376.276245,286.166901 376.067291,296.396912   C375.906769,304.255493 375.994354,312.118988 375.955688,319.980255   C375.923309,326.559509 375.867889,333.138641 375.535034,340.119781   C374.980591,340.495636 374.737183,340.406006 374.185211,340.045959   C372.272491,336.106842 370.347595,332.478546 369.182434,328.620850   C366.749939,320.566986 364.865997,312.348389 362.480591,304.279083   C360.142456,296.369812 357.481598,288.555298 354.904022,280.718384   C354.611572,279.829163 353.807068,279.114899 353.473785,278.231323   C352.588531,275.884552 351.709503,273.522583 351.053772,271.105377   C350.237122,268.094879 349.646698,265.023010 348.958618,261.977661   C353.658325,247.646347 364.169495,237.450439 374.638763,226.721893   C375.282196,227.716583 376.116302,229.006073 377.003937,230.624847  z"/>
<path fill="#47AD45" opacity="1.000000" stroke="none" d=" M348.691315,262.208923   C349.646698,265.023010 350.237122,268.094879 351.053772,271.105377   C351.709503,273.522583 352.588531,275.884552 353.473785,278.231323   C353.807068,279.114899 354.611572,279.829163 354.904022,280.718384   C357.481598,288.555298 360.142456,296.369812 362.480591,304.279083   C364.865997,312.348389 366.749939,320.566986 369.182434,328.620850   C370.347595,332.478546 372.272491,336.106842 374.156067,340.448669   C373.717590,345.108704 372.976379,349.159058 372.235168,353.209442   C367.932709,349.406433 363.114532,346.042023 359.432312,341.711609   C351.071503,331.878998 344.630341,320.898254 342.796021,307.785400   C340.612244,292.174408 342.189178,277.014221 348.691315,262.208923  z"/>
<path fill="#D6DCC5" opacity="1.000000" stroke="none" d=" M372.276611,353.583618   C372.976379,349.159058 373.717590,345.108704 374.487976,340.655579   C374.737183,340.406006 374.980591,340.495636 375.436279,340.570129   C376.913666,344.307831 378.202118,347.997101 379.784912,351.938324   C379.199890,358.686249 378.320496,365.182220 377.196075,373.488312   C375.753052,370.999359 374.499481,369.700958 374.237885,368.226593   C373.400269,363.505402 372.930084,358.719025 372.276611,353.583618  z"/>
<path fill="#FAFBFC" opacity="1.000000" stroke="none" d=" M730.046143,469.261658   C729.747498,466.361694 730.497559,465.101471 733.271729,465.233276   C737.247986,465.422211 741.247559,465.126251 745.222900,465.324310   C751.352722,465.629639 754.948486,469.480103 755.108276,475.573059   C755.279053,482.084412 751.918152,486.380524 745.803223,486.895172   C741.845154,487.228271 737.838989,486.990723 733.854370,487.006500   C732.739258,487.010925 731.624146,487.007141 730.046143,487.007141   C730.046143,480.934601 730.046143,475.332703 730.046143,469.261658  z"/>
<path fill="#CD7971" opacity="1.000000" stroke="none" d=" M597.351562,226.599838   C617.357605,238.174255 630.607544,254.671509 637.040344,276.539673   C643.937439,299.986267 639.904541,321.836212 626.681946,341.992645   C608.376709,369.897125 581.951477,382.856049 549.072937,379.681091   C525.106750,377.366821 505.746918,365.051361 491.578369,345.106232   C480.608612,329.664062 474.740387,312.494202 476.156647,293.710571   C477.762695,272.409882 486.039459,253.796127 502.160767,238.968628   C509.959259,231.795990 518.455139,225.979492 528.142517,221.874207   C542.588318,215.752380 557.654236,213.889725 572.886292,217.582870   C581.160095,219.588959 588.990967,223.421829 597.351562,226.599838  M505.410889,320.844025   C503.825348,315.467957 502.077393,310.132843 500.709198,304.702026   C499.736053,300.839325 501.561859,299.535309 505.549316,299.594940   C519.526978,299.803955 533.510803,299.770691 547.490356,299.631714   C559.253052,299.514832 560.197571,302.688995 557.874939,287.477448   C555.898560,274.534607 546.037842,263.979584 534.350159,262.059814   C520.125244,259.723236 508.234283,265.733429 501.445953,278.240814   C496.758148,286.878052 496.629059,296.072754 497.176453,305.439880   C498.236572,323.578949 508.693390,334.178772 526.723022,335.438110   C541.617004,336.478455 554.367249,327.036163 557.437988,312.611053   C557.668701,311.527344 557.352356,310.327179 557.254639,308.520508   C552.796936,315.185883 549.639038,321.773804 544.779358,326.674103   C539.409851,332.088440 531.624207,332.669891 524.137024,332.014130   C516.456787,331.341492 510.103790,328.146606 505.410889,320.844025  M613.401733,263.155426   C609.749146,267.322968 605.938110,271.363922 602.482239,275.688599   C597.653625,281.731018 593.090088,287.985199 588.064880,294.607605   C580.995728,285.040527 574.459656,276.057648 567.739685,267.214355   C566.368225,265.409546 564.306335,264.129425 562.562744,262.607452   C562.170837,263.017975 561.778931,263.428467 561.387024,263.838959   C561.874756,264.821075 562.222900,265.908417 562.871765,266.769043   C569.384094,275.406525 575.738586,284.176605 582.590942,292.537750   C585.518066,296.109436 585.344849,298.608124 582.566101,301.966553   C577.156311,308.504974 572.021484,315.272980 566.840942,321.998322   C564.097168,325.560181 561.496399,329.232147 558.831055,332.854401   C559.445007,333.346771 560.058960,333.839142 560.672852,334.331543   C570.710510,324.022278 578.234497,311.494904 588.651184,299.603455   C589.501343,301.105743 589.961975,302.200317 590.661255,303.111786   C597.751099,312.352600 604.822754,321.608795 612.057007,330.735870   C613.192444,332.168396 615.114807,332.977051 616.673340,334.074188   C616.988037,333.620026 617.302673,333.165894 617.617371,332.711761   C609.318542,321.939331 601.121704,311.085602 592.645264,300.454895   C590.664490,297.970764 590.710083,296.299316 592.529358,293.959290   C599.373108,285.156525 606.141296,276.293823 612.817444,267.363647   C613.616699,266.294495 613.678650,264.674133 613.401733,263.155426  z"/>
<path fill="#2B6693" opacity="1.000000" stroke="none" d=" M812.990234,338.880859   C794.719543,371.108948 756.284668,387.439087 720.573608,376.956818   C669.404480,361.937164 642.365173,302.482849 673.804626,254.189636   C690.229004,228.960785 714.295227,215.847321 744.430908,216.096939   C764.184265,216.260574 781.582886,224.042130 796.415100,237.423325   C815.961304,255.057236 825.054382,277.027618 824.184631,303.148590   C823.760437,315.885559 819.225647,327.500458 812.990234,338.880859  M701.843506,355.515930   C706.514893,361.427124 712.213806,363.911011 718.938232,360.897675   C726.104492,357.686371 732.711426,353.110046 739.247559,348.666443   C741.877563,346.878418 743.155212,347.122192 745.583618,348.945282   C750.991821,353.005341 756.469055,357.301453 762.574646,360.035217   C774.788940,365.504120 785.183044,358.800842 785.854858,345.301483   C786.166504,339.040344 785.650269,332.641235 784.632812,326.448669   C784.062622,322.978180 784.872803,322.079193 787.864441,320.705231   C794.602539,317.610718 801.578430,314.529419 807.400574,310.064484   C815.970703,303.492249 816.367065,293.838531 808.166992,287.012299   C802.438782,282.243835 795.251709,279.112122 788.445557,275.806763   C785.382996,274.319458 784.056152,273.630585 784.586121,269.487427   C785.564575,261.838531 785.920959,253.856705 784.823242,246.261200   C783.514832,237.207657 775.942871,233.101425 767.047607,234.777924   C758.657898,236.359161 752.127930,241.203613 746.071655,246.697891   C743.099426,249.394272 741.308289,249.337799 738.130737,246.782959   C733.122009,242.755737 727.717041,238.948608 721.926331,236.225510   C711.165161,231.165039 701.250671,235.982330 699.337463,247.652191   C698.185303,254.679977 699.071655,262.154236 699.848999,269.340515   C700.261353,273.152618 699.223938,274.503204 695.910950,275.936584   C689.866089,278.551849 683.651550,281.214874 678.360291,285.037781   C668.309448,292.299408 668.409668,304.125458 678.498779,311.413971   C683.557617,315.068604 689.307129,318.164734 695.204773,320.135834   C700.001343,321.738953 700.594543,323.823853 699.570801,328.098969   C697.398254,337.171448 696.922302,346.228058 701.843506,355.515930  z"/>
<path fill="#F4E4E1" opacity="1.000000" stroke="none" d=" M505.624725,321.146576   C510.103790,328.146606 516.456787,331.341492 524.137024,332.014130   C531.624207,332.669891 539.409851,332.088440 544.779358,326.674103   C549.639038,321.773804 552.796936,315.185883 557.254639,308.520508   C557.352356,310.327179 557.668701,311.527344 557.437988,312.611053   C554.367249,327.036163 541.617004,336.478455 526.723022,335.438110   C508.693390,334.178772 498.236572,323.578949 497.176453,305.439880   C496.629059,296.072754 496.758148,286.878052 501.445953,278.240814   C508.234283,265.733429 520.125244,259.723236 534.350159,262.059814   C546.037842,263.979584 555.898560,274.534607 557.874939,287.477448   C560.197571,302.688995 559.253052,299.514832 547.490356,299.631714   C533.510803,299.770691 519.526978,299.803955 505.549316,299.594940   C501.561859,299.535309 499.736053,300.839325 500.709198,304.702026   C502.077393,310.132843 503.825348,315.467957 505.624725,321.146576  M521.500244,296.034149   C532.593567,296.034149 543.686890,296.034149 554.668152,296.034149   C556.538330,279.033539 544.603027,265.118439 528.885437,264.860107   C512.693848,264.593994 502.709351,276.757751 500.414490,292.768127   C499.979584,295.802185 501.764160,296.044250 504.001068,296.034576   C509.500793,296.010803 515.000732,296.032257 521.500244,296.034149  z"/>
<path fill="#F4E4E1" opacity="1.000000" stroke="none" d=" M613.742065,263.232330   C613.678650,264.674133 613.616699,266.294495 612.817444,267.363647   C606.141296,276.293823 599.373108,285.156525 592.529358,293.959290   C590.710083,296.299316 590.664490,297.970764 592.645264,300.454895   C601.121704,311.085602 609.318542,321.939331 617.617371,332.711761   C617.302673,333.165894 616.988037,333.620026 616.673340,334.074188   C615.114807,332.977051 613.192444,332.168396 612.057007,330.735870   C604.822754,321.608795 597.751099,312.352600 590.661255,303.111786   C589.961975,302.200317 589.501343,301.105743 588.651184,299.603455   C578.234497,311.494904 570.710510,324.022278 560.672852,334.331543   C560.058960,333.839142 559.445007,333.346771 558.831055,332.854401   C561.496399,329.232147 564.097168,325.560181 566.840942,321.998322   C572.021484,315.272980 577.156311,308.504974 582.566101,301.966553   C585.344849,298.608124 585.518066,296.109436 582.590942,292.537750   C575.738586,284.176605 569.384094,275.406525 562.871765,266.769043   C562.222900,265.908417 561.874756,264.821075 561.387024,263.838959   C561.778931,263.428467 562.170837,263.017975 562.562744,262.607452   C564.306335,264.129425 566.368225,265.409546 567.739685,267.214355   C574.459656,276.057648 580.995728,285.040527 588.064880,294.607605   C593.090088,287.985199 597.653625,281.731018 602.482239,275.688599   C605.938110,271.363922 609.749146,267.322968 613.742065,263.232330  z"/>
<path fill="#6ACDEC" opacity="1.000000" stroke="none" d=" M701.651733,355.195648   C696.922302,346.228058 697.398254,337.171448 699.570801,328.098969   C700.594543,323.823853 700.001343,321.738953 695.204773,320.135834   C689.307129,318.164734 683.557617,315.068604 678.498779,311.413971   C668.409668,304.125458 668.309448,292.299408 678.360291,285.037781   C683.651550,281.214874 689.866089,278.551849 695.910950,275.936584   C699.223938,274.503204 700.261353,273.152618 699.848999,269.340515   C699.071655,262.154236 698.185303,254.679977 699.337463,247.652191   C701.250671,235.982330 711.165161,231.165039 721.926331,236.225510   C727.717041,238.948608 733.122009,242.755737 738.130737,246.782959   C741.308289,249.337799 743.099426,249.394272 746.071655,246.697891   C752.127930,241.203613 758.657898,236.359161 767.047607,234.777924   C775.942871,233.101425 783.514832,237.207657 784.823242,246.261200   C785.920959,253.856705 785.564575,261.838531 784.586121,269.487427   C784.056152,273.630585 785.382996,274.319458 788.445557,275.806763   C795.251709,279.112122 802.438782,282.243835 808.166992,287.012299   C816.367065,293.838531 815.970703,303.492249 807.400574,310.064484   C801.578430,314.529419 794.602539,317.610718 787.864441,320.705231   C784.872803,322.079193 784.062622,322.978180 784.632812,326.448669   C785.650269,332.641235 786.166504,339.040344 785.854858,345.301483   C785.183044,358.800842 774.788940,365.504120 762.574646,360.035217   C756.469055,357.301453 750.991821,353.005341 745.583618,348.945282   C743.155212,347.122192 741.877563,346.878418 739.247559,348.666443   C732.711426,353.110046 726.104492,357.686371 718.938232,360.897675   C712.213806,363.911011 706.514893,361.427124 701.651733,355.195648  M764.881470,304.354828   C768.763916,299.702087 767.251282,295.402618 764.448547,290.799225   C753.808472,273.323425 758.812378,275.385986 737.710938,275.061707   C731.742676,274.970001 727.597473,277.098175 724.623779,282.644531   C714.456787,301.607330 714.920105,294.755066 724.237793,312.825012   C727.328369,318.818634 731.217285,321.340942 738.272217,321.172333   C756.320740,320.741028 756.329651,321.114197 764.881470,304.354828  M779.350586,332.304352   C778.797668,329.585205 778.244812,326.866058 777.661133,323.995636   C771.587341,324.831299 766.013794,325.527924 760.472412,326.422974   C759.431641,326.591064 758.272339,327.348999 757.589478,328.180939   C754.638611,331.775848 751.669189,335.383392 749.109192,339.252808   C748.416687,340.299377 748.527405,343.146484 749.305786,343.694061   C754.961853,347.672760 760.557678,352.005432 766.812256,354.788788   C772.997131,357.541107 777.617249,354.763428 778.998230,347.991028   C779.973511,343.208374 779.429504,338.115906 779.350586,332.304352  M782.130493,314.682892   C791.218506,314.848022 798.181824,310.262085 804.338440,304.320099   C808.720703,300.090759 809.105896,295.568146 804.258179,291.928558   C798.414062,287.540955 791.504456,284.533112 784.888550,281.267365   C784.138672,280.897217 781.752441,282.394012 781.066528,283.572906   C775.888123,292.473083 774.251160,301.576996 780.298889,310.865997   C780.917236,311.815735 781.154907,313.013275 782.130493,314.682892  M765.541138,241.667389   C758.408325,244.581512 752.194397,248.773972 746.866333,254.695007   C750.105164,258.645020 753.113831,262.353241 756.170837,266.021179   C757.216736,267.276031 758.227173,269.240448 759.522400,269.490814   C765.437073,270.634003 771.447266,271.283234 778.424744,272.248535   C778.954712,265.122589 780.002380,258.716827 779.769775,252.357956   C779.422852,242.875763 775.388245,239.938858 765.541138,241.667389  M731.000061,347.522583   C731.756287,346.873352 732.428467,346.071838 733.282776,345.600433   C737.683044,343.172302 737.698792,340.646729 734.084351,337.247253   C731.699036,335.003784 730.102905,331.942688 727.871399,329.505859   C726.607117,328.125336 724.907715,326.691010 723.169861,326.285492   C718.831177,325.273102 714.373352,324.655823 709.929565,324.286041   C708.753296,324.188171 706.443054,325.470337 706.370667,326.273651   C705.736206,333.309326 704.774353,340.438171 705.340393,347.423431   C705.864441,353.890442 711.592346,357.037537 717.783447,354.763947   C722.233215,353.129852 726.240967,350.291931 731.000061,347.522583  M702.706909,281.609833   C702.286255,281.363098 701.712524,280.798035 701.467163,280.916016   C694.504944,284.262634 686.906128,286.785217 680.833801,291.339142   C675.031006,295.690948 675.942749,302.123169 682.196411,306.339172   C687.236877,309.737305 693.007019,312.076477 698.530884,314.723907   C701.137695,315.973267 702.875916,315.015045 703.835449,312.161774   C705.158936,308.226074 706.951294,304.443695 708.184021,300.483978   C708.672363,298.915314 708.606567,296.911774 708.085327,295.341064   C706.621216,290.928619 704.788818,286.638336 702.706909,281.609833  M704.795654,255.594315   C704.881348,258.246979 704.832031,260.912201 705.077759,263.549957   C705.861938,271.967865 706.332581,272.292633 714.607361,271.076599   C717.225647,270.691803 719.879028,270.497559 722.466797,269.972260   C723.851135,269.691254 725.537720,269.244385 726.386414,268.264679   C730.149597,263.920715 733.658569,259.356598 737.803467,254.194733   C732.933960,250.587189 728.692810,246.846771 723.911133,244.020950   C712.104919,237.043839 705.246887,240.990875 704.795654,255.594315  M737.160278,327.063904   C736.556519,327.752289 735.333252,328.917938 735.441162,329.057983   C737.236755,331.388458 739.116211,333.673859 741.199646,335.745209   C741.580261,336.123566 743.293457,335.839172 743.792725,335.303101   C745.939087,332.998322 747.862000,330.485474 750.678711,327.060760   C745.493103,327.060760 741.754822,327.060760 737.160278,327.063904  M773.759338,310.767090   C773.167053,309.469635 772.574829,308.172180 771.426086,305.655640   C768.483398,310.712646 766.113953,314.784515 762.979553,320.171021   C768.270447,319.119202 771.888428,318.399933 775.867126,317.608978   C775.140381,315.253235 774.561890,313.378021 773.759338,310.767090  M773.995728,278.133911   C770.824402,277.552063 767.653076,276.970184 762.949280,276.107178   C766.074829,281.365814 768.472778,285.400360 770.870789,289.434906   C771.524170,289.366699 772.177490,289.298523 772.830872,289.230316   C773.447632,285.636444 774.064392,282.042542 773.995728,278.133911  M749.374023,267.313354   C747.137207,264.677429 744.900452,262.041473 742.230164,258.894653   C739.558655,262.144135 737.164917,265.055786 734.771179,267.967468   C735.065308,268.444550 735.359497,268.921631 735.653625,269.398712   C740.282166,268.942474 744.910645,268.486206 749.374023,267.313354  M715.555664,309.975616   C714.803162,308.781067 714.050659,307.586517 712.768494,305.551178   C711.185364,310.007812 709.923279,313.560638 708.489319,317.597412   C712.881592,318.402283 716.313904,319.031281 720.997559,319.889557   C718.897461,315.987671 717.436523,313.273407 715.555664,309.975616  M711.381165,286.881439   C711.878662,287.813721 712.376099,288.745972 713.193848,290.278503   C715.790955,285.746552 718.033081,281.834076 720.489075,277.548401   C719.101318,277.238617 718.493713,276.986877 717.885132,276.984650   C709.425781,276.953644 708.384644,278.380646 711.381165,286.881439  z"/>
<path fill="#CD7971" opacity="1.000000" stroke="none" d=" M521.000366,296.034851   C515.000732,296.032257 509.500793,296.010803 504.001068,296.034576   C501.764160,296.044250 499.979584,295.802185 500.414490,292.768127   C502.709351,276.757751 512.693848,264.593994 528.885437,264.860107   C544.603027,265.118439 556.538330,279.033539 554.668152,296.034149   C543.686890,296.034149 532.593567,296.034149 521.000366,296.034851  z"/>
<path fill="#286693" opacity="1.000000" stroke="none" d=" M764.701904,304.679413   C756.329651,321.114197 756.320740,320.741028 738.272217,321.172333   C731.217285,321.340942 727.328369,318.818634 724.237793,312.825012   C714.920105,294.755066 714.456787,301.607330 724.623779,282.644531   C727.597473,277.098175 731.742676,274.970001 737.710938,275.061707   C758.812378,275.385986 753.808472,273.323425 764.448547,290.799225   C767.251282,295.402618 768.763916,299.702087 764.701904,304.679413  M732.381653,289.969421   C728.231018,296.325836 728.197327,301.041199 732.267578,305.958557   C736.041321,310.517700 741.531372,312.187653 746.483765,310.282867   C751.796692,308.239410 754.921692,303.997803 755.099243,298.589294   C755.271667,293.332794 752.452087,288.454254 747.925415,286.452606   C742.257812,283.946472 737.251343,285.112427 732.381653,289.969421  z"/>
<path fill="#276592" opacity="1.000000" stroke="none" d=" M779.457153,332.733032   C779.429504,338.115906 779.973511,343.208374 778.998230,347.991028   C777.617249,354.763428 772.997131,357.541107 766.812256,354.788788   C760.557678,352.005432 754.961853,347.672760 749.305786,343.694061   C748.527405,343.146484 748.416687,340.299377 749.109192,339.252808   C751.669189,335.383392 754.638611,331.775848 757.589478,328.180939   C758.272339,327.348999 759.431641,326.591064 760.472412,326.422974   C766.013794,325.527924 771.587341,324.831299 777.661133,323.995636   C778.244812,326.866058 778.797668,329.585205 779.457153,332.733032  z"/>
<path fill="#276592" opacity="1.000000" stroke="none" d=" M781.849854,314.389343   C781.154907,313.013275 780.917236,311.815735 780.298889,310.865997   C774.251160,301.576996 775.888123,292.473083 781.066528,283.572906   C781.752441,282.394012 784.138672,280.897217 784.888550,281.267365   C791.504456,284.533112 798.414062,287.540955 804.258179,291.928558   C809.105896,295.568146 808.720703,300.090759 804.338440,304.320099   C798.181824,310.262085 791.218506,314.848022 781.849854,314.389343  z"/>
<path fill="#276592" opacity="1.000000" stroke="none" d=" M765.916809,241.508392   C775.388245,239.938858 779.422852,242.875763 779.769775,252.357956   C780.002380,258.716827 778.954712,265.122589 778.424744,272.248535   C771.447266,271.283234 765.437073,270.634003 759.522400,269.490814   C758.227173,269.240448 757.216736,267.276031 756.170837,266.021179   C753.113831,262.353241 750.105164,258.645020 746.866333,254.695007   C752.194397,248.773972 758.408325,244.581512 765.916809,241.508392  z"/>
<path fill="#276592" opacity="1.000000" stroke="none" d=" M730.722961,347.756805   C726.240967,350.291931 722.233215,353.129852 717.783447,354.763947   C711.592346,357.037537 705.864441,353.890442 705.340393,347.423431   C704.774353,340.438171 705.736206,333.309326 706.370667,326.273651   C706.443054,325.470337 708.753296,324.188171 709.929565,324.286041   C714.373352,324.655823 718.831177,325.273102 723.169861,326.285492   C724.907715,326.691010 726.607117,328.125336 727.871399,329.505859   C730.102905,331.942688 731.699036,335.003784 734.084351,337.247253   C737.698792,340.646729 737.683044,343.172302 733.282776,345.600433   C732.428467,346.071838 731.756287,346.873352 730.722961,347.756805  z"/>
<path fill="#276592" opacity="1.000000" stroke="none" d=" M702.904297,281.954834   C704.788818,286.638336 706.621216,290.928619 708.085327,295.341064   C708.606567,296.911774 708.672363,298.915314 708.184021,300.483978   C706.951294,304.443695 705.158936,308.226074 703.835449,312.161774   C702.875916,315.015045 701.137695,315.973267 698.530884,314.723907   C693.007019,312.076477 687.236877,309.737305 682.196411,306.339172   C675.942749,302.123169 675.031006,295.690948 680.833801,291.339142   C686.906128,286.785217 694.504944,284.262634 701.467163,280.916016   C701.712524,280.798035 702.286255,281.363098 702.904297,281.954834  z"/>
<path fill="#276592" opacity="1.000000" stroke="none" d=" M704.797363,255.122650   C705.246887,240.990875 712.104919,237.043839 723.911133,244.020950   C728.692810,246.846771 732.933960,250.587189 737.803467,254.194733   C733.658569,259.356598 730.149597,263.920715 726.386414,268.264679   C725.537720,269.244385 723.851135,269.691254 722.466797,269.972260   C719.879028,270.497559 717.225647,270.691803 714.607361,271.076599   C706.332581,272.292633 705.861938,271.967865 705.077759,263.549957   C704.832031,260.912201 704.881348,258.246979 704.797363,255.122650  z"/>
<path fill="#2D6F9B" opacity="1.000000" stroke="none" d=" M737.588440,327.062317   C741.754822,327.060760 745.493103,327.060760 750.678711,327.060760   C747.862000,330.485474 745.939087,332.998322 743.792725,335.303101   C743.293457,335.839172 741.580261,336.123566 741.199646,335.745209   C739.116211,333.673859 737.236755,331.388458 735.441162,329.057983   C735.333252,328.917938 736.556519,327.752289 737.588440,327.062317  z"/>
<path fill="#2D6F9B" opacity="1.000000" stroke="none" d=" M773.871338,311.134949   C774.561890,313.378021 775.140381,315.253235 775.867126,317.608978   C771.888428,318.399933 768.270447,319.119202 762.979553,320.171021   C766.113953,314.784515 768.483398,310.712646 771.426086,305.655640   C772.574829,308.172180 773.167053,309.469635 773.871338,311.134949  z"/>
<path fill="#2D6F9B" opacity="1.000000" stroke="none" d=" M774.338501,278.291260   C774.064392,282.042542 773.447632,285.636444 772.830872,289.230316   C772.177490,289.298523 771.524170,289.366699 770.870789,289.434906   C768.472778,285.400360 766.074829,281.365814 762.949280,276.107178   C767.653076,276.970184 770.824402,277.552063 774.338501,278.291260  z"/>
<path fill="#2D6F9B" opacity="1.000000" stroke="none" d=" M749.456604,267.671631   C744.910645,268.486206 740.282166,268.942474 735.653625,269.398712   C735.359497,268.921631 735.065308,268.444550 734.771179,267.967468   C737.164917,265.055786 739.558655,262.144135 742.230164,258.894653   C744.900452,262.041473 747.137207,264.677429 749.456604,267.671631  z"/>
<path fill="#2D6F9B" opacity="1.000000" stroke="none" d=" M715.765625,310.267395   C717.436523,313.273407 718.897461,315.987671 720.997559,319.889557   C716.313904,319.031281 712.881592,318.402283 708.489319,317.597412   C709.923279,313.560638 711.185364,310.007812 712.768494,305.551178   C714.050659,307.586517 714.803162,308.781067 715.765625,310.267395  z"/>
<path fill="#2D6F9B" opacity="1.000000" stroke="none" d=" M711.245361,286.540619   C708.384644,278.380646 709.425781,276.953644 717.885132,276.984650   C718.493713,276.986877 719.101318,277.238617 720.489075,277.548401   C718.033081,281.834076 715.790955,285.746552 713.193848,290.278503   C712.376099,288.745972 711.878662,287.813721 711.245361,286.540619  z"/>
<path fill="#6ACDEC" opacity="1.000000" stroke="none" d=" M732.638855,289.693970   C737.251343,285.112427 742.257812,283.946472 747.925415,286.452606   C752.452087,288.454254 755.271667,293.332794 755.099243,298.589294   C754.921692,303.997803 751.796692,308.239410 746.483765,310.282867   C741.531372,312.187653 736.041321,310.517700 732.267578,305.958557   C728.197327,301.041199 728.231018,296.325836 732.638855,289.693970  z"/>
</svg>